<svg width="20" height="20" viewBox="0 0 20 20" fill="none" xmlns="http://www.w3.org/2000/svg">
    <path
        d="M2.5 5.41667H5M5 5.41667C5 6.33333 5.74167 7.08333 6.66667 7.08333C7.59167 7.08333 8.33333 6.33333 8.33333 5.41667C8.33333 4.5 7.59167 3.75 6.66667 3.75C5.74167 3.75 5 4.5 5 5.41667ZM8.33333 5.41667H17.5"
        stroke="currentColor" stroke-width="1.5" stroke-linecap="round" stroke-linejoin="round" />
    <path
        d="M2.5 14.5833H11.6667M11.6667 14.5833C11.6667 15.5 12.4083 16.25 13.3333 16.25C14.2583 16.25 15 15.5 15 14.5833C15 13.6667 14.2583 12.9167 13.3333 12.9167C12.4083 12.9167 11.6667 13.6667 11.6667 14.5833ZM15 14.5833H17.5"
        stroke="currentColor" stroke-width="1.5" stroke-linecap="round" stroke-linejoin="round" />
    <rect x="2.5" y="9.16667" width="2.5" height="2.5" rx="1.25" stroke="currentColor"
        stroke-width="1.5" />
    <rect x="7.5" y="9.16667" width="2.5" height="2.5" rx="1.25" stroke="currentColor"
        stroke-width="1.5" />
    <rect x="12.5" y="9.16667" width="2.5" height="2.5" rx="1.25" stroke="currentColor"
        stroke-width="1.5" />
    <rect x="15" y="9.16667" width="2.5" height="2.5" rx="1.25" stroke="currentColor"
        stroke-width="1.5" />
</svg> 