<svg width="24" height="24" viewBox="0 0 24 24" fill="none" xmlns="http://www.w3.org/2000/svg">
<g id="arrow-shrink -01-round">
<g id="arrow-shrink -01-round_2">
<g id="elements">
<path id="Vector" d="M6.90868 11.3266C7.4677 11.394 8.18755 11.4808 8.83065 11.497C9.17065 11.5056 9.53163 11.4961 9.86094 11.4405C10.1542 11.3911 10.6023 11.2781 10.9403 10.9401C11.2783 10.602 11.3913 10.1539 11.4408 9.86072C11.4963 9.53141 11.5058 9.17043 11.4972 8.83043C11.4811 8.18732 11.3943 7.46755 11.3269 6.90853L11.3108 6.77471C11.2897 6.59813 11.2639 6.38276 11.221 6.20948L11.22 6.20533C11.1896 6.08215 11.0497 5.51566 10.4545 5.30989C9.8609 5.10465 9.40285 5.46049 9.30146 5.53925L9.29948 5.54079C9.15903 5.64986 9.00688 5.80223 8.88371 5.92558L8.11189 6.6974L3.70711 2.29251C3.31658 1.90199 2.68342 1.90199 2.29289 2.29251C1.90237 2.68303 1.90237 3.3162 2.29289 3.70672L6.69768 8.11162L5.9258 8.88349L5.9258 8.8835C5.80244 9.00667 5.65008 9.15881 5.54101 9.29926L5.53947 9.30124C5.46071 9.40263 5.10487 9.86068 5.3101 10.4543C5.51588 11.0494 6.08237 11.1893 6.20555 11.2198L6.2097 11.2208C6.38294 11.2637 6.59846 11.2895 6.77502 11.3106L6.90868 11.3266Z" fill="#141B34"/>
<path id="Vector_2" d="M17.0913 12.6729C16.5323 12.6055 15.8125 12.5187 15.1694 12.5025C14.8294 12.4939 14.4684 12.5035 14.1391 12.559C13.8458 12.6084 13.3977 12.7214 13.0597 13.0594C12.7217 13.3975 12.6087 13.8456 12.5592 14.1388C12.5037 14.4681 12.4942 14.8291 12.5028 15.1691C12.5189 15.8122 12.6057 16.532 12.6731 17.091L12.6892 17.2248C12.7103 17.4014 12.7361 17.6168 12.779 17.79L12.78 17.7942C12.8104 17.9174 12.9503 18.4838 13.5455 18.6896C14.1391 18.8949 14.5972 18.539 14.6985 18.4603L14.7005 18.4587C14.841 18.3497 14.9931 18.1973 15.1163 18.0739L15.8881 17.3021L20.2929 21.707C20.6834 22.0975 21.3166 22.0975 21.7071 21.707C22.0976 21.3165 22.0976 20.6833 21.7071 20.2928L17.3023 15.8879L18.0742 15.116L18.0742 15.116C18.1976 14.9928 18.3499 14.8407 18.459 14.7002L18.4605 14.6983C18.5393 14.5969 18.8951 14.1388 18.6899 13.5452C18.4841 12.9501 17.9176 12.8102 17.7945 12.7797L17.7903 12.7787C17.6171 12.7358 17.4015 12.71 17.225 12.6889L17.0913 12.6729Z" fill="#141B34"/>
</g>
</g>
</g>
</svg>
