<svg width="20" height="20" viewBox="0 0 20 20" fill="none" xmlns="http://www.w3.org/2000/svg">
<g id="briefcase-03">
<g id="briefcase-03_2">
<g id="elements">
<path id="Rectangle 2221" d="M8.33398 10.2776C8.33398 10.0193 8.33398 9.89013 8.36238 9.78415C8.43944 9.49658 8.66406 9.27196 8.95164 9.1949C9.05761 9.1665 9.18677 9.1665 9.4451 9.1665H10.5562C10.8145 9.1665 10.9437 9.1665 11.0497 9.1949C11.3372 9.27196 11.5619 9.49658 11.6389 9.78415C11.6673 9.89013 11.6673 10.0193 11.6673 10.2776V10.8332C11.6673 11.7536 10.9211 12.4998 10.0007 12.4998C9.08018 12.4998 8.33398 11.7536 8.33398 10.8332V10.2776Z" stroke="#7D91A6" stroke-width="1.5" stroke-linecap="round" stroke-linejoin="round"/>
<path id="Vector" d="M11.5019 10.8333C11.7616 10.7579 12.0562 10.6671 12.4007 10.5608L15.8766 9.48886C17.1138 9.10734 17.7193 8.44248 17.851 7.29148C17.9099 6.77665 17.9394 6.51924 17.898 6.30852C17.7797 5.7072 17.2747 5.21962 16.6017 5.05699C16.3659 5 16.0698 5 15.4777 5H4.52362C3.93149 5 3.63542 5 3.39958 5.05699C2.72657 5.21962 2.22157 5.7072 2.10334 6.30852C2.06191 6.51924 2.09137 6.77665 2.15029 7.29148C2.28202 8.44248 2.88752 9.10734 4.12467 9.48886L7.60061 10.5608C7.94512 10.6671 8.23968 10.7579 8.49936 10.8333" stroke="#7D91A6" stroke-width="1.5"/>
<path id="Vector 6735" d="M2.88569 9.1665L2.72215 10.9767C2.42901 14.2216 2.28243 15.8441 3.22278 16.8803C4.16313 17.9165 5.78209 17.9165 9.02001 17.9165H10.98C14.2179 17.9165 15.8369 17.9165 16.7772 16.8803C17.7176 15.8441 17.571 14.2217 17.2778 10.9767L17.1143 9.1665" stroke="#7D91A6" stroke-width="1.5" stroke-linecap="round" stroke-linejoin="round"/>
<path id="Rectangle 2223" d="M12.9173 4.58325L12.8529 4.36249C12.5321 3.26246 12.3717 2.71244 11.9897 2.39785C11.6078 2.08325 11.1005 2.08325 10.0859 2.08325H9.91537C8.90077 2.08325 8.39347 2.08325 8.01156 2.39785C7.62964 2.71244 7.46922 3.26246 7.14837 4.36249L7.08398 4.58325" stroke="#7D91A6" stroke-width="1.5"/>
</g>
</g>
</g>
</svg>
