<svg width="20" height="20" viewBox="0 0 20 20" fill="none" xmlns="http://www.w3.org/2000/svg">
<g id="building-06">
<g id="building-06_2">
<g id="elements">
<path id="Rectangle 2360" d="M10 1.6665H5C2.93167 1.6665 2.5 2.09817 2.5 4.1665V18.3332H12.5V4.1665C12.5 2.09817 12.0683 1.6665 10 1.6665Z" stroke="#7D91A6" stroke-width="1.5" stroke-linejoin="round"/>
<path id="Rectangle 2361" d="M15 6.6665H12.5V18.3332H17.5V9.1665C17.5 7.09817 17.0683 6.6665 15 6.6665Z" stroke="#7D91A6" stroke-width="1.5" stroke-linejoin="round"/>
<path id="Vector" d="M6.66602 5L8.33268 5M6.66602 7.5L8.33268 7.5M6.66602 10L8.33268 10" stroke="#7D91A6" stroke-width="1.5" stroke-linecap="round" stroke-linejoin="round"/>
<path id="Rectangle 2358" d="M9.58268 18.3333V14.9999C9.58268 14.2142 9.58268 13.8214 9.3386 13.5773C9.09453 13.3333 8.70169 13.3333 7.91602 13.3333H7.08268C6.29701 13.3333 5.90417 13.3333 5.66009 13.5773C5.41602 13.8214 5.41602 14.2142 5.41602 14.9999V18.3333" stroke="#7D91A6" stroke-width="1.5" stroke-linejoin="round"/>
</g>
</g>
</g>
</svg>
