<svg width="20" height="20" viewBox="0 0 20 20" fill="none" xmlns="http://www.w3.org/2000/svg">
<g id="coins-01">
<g id="coins-01_2" clip-path="url(#clip0_53_8109)">
<g id="elements">
<ellipse id="Ellipse 1581" cx="12.9167" cy="9.16667" rx="5.41667" ry="1.66667" stroke="#7D91A6" stroke-width="1.5"/>
<path id="Ellipse 1582" d="M18.3333 12.9167C18.3333 13.8372 15.9082 14.5834 12.9167 14.5834C9.92512 14.5834 7.5 13.8372 7.5 12.9167" stroke="#7D91A6" stroke-width="1.5"/>
<path id="Ellipse 1583" d="M18.3333 9.16675V16.5001C18.3333 17.5126 15.9082 18.3334 12.9167 18.3334C9.92512 18.3334 7.5 17.5126 7.5 16.5001V9.16675" stroke="#7D91A6" stroke-width="1.5"/>
<ellipse id="Ellipse 1584" cx="7.08268" cy="3.33341" rx="5.41667" ry="1.66667" stroke="#7D91A6" stroke-width="1.5"/>
<path id="Vector" d="M4.99935 9.16667C3.42284 8.97481 1.97428 8.47878 1.66602 7.5M4.99935 13.3333C3.42284 13.1415 1.97428 12.6455 1.66602 11.6667" stroke="#7D91A6" stroke-width="1.5" stroke-linecap="round"/>
<path id="Vector_2" d="M4.99935 17.5002C3.42284 17.3083 1.97428 16.8123 1.66602 15.8335L1.66602 3.3335" stroke="#7D91A6" stroke-width="1.5" stroke-linecap="round"/>
<path id="Ellipse 1590" d="M12.5 5.00016V3.3335" stroke="#7D91A6" stroke-width="1.5" stroke-linecap="round"/>
</g>
</g>
</g>
<defs>
<clipPath id="clip0_53_8109">
<rect width="20" height="20" fill="white"/>
</clipPath>
</defs>
</svg>
