<svg width="24" height="24" viewBox="0 0 24 24" fill="none" xmlns="http://www.w3.org/2000/svg">
<g id="contact-01">
<g id="contact-01_2">
<g id="elements">
<rect id="Rectangle 17837" x="4" y="2" width="17.5" height="20" rx="4" stroke="#7D91A6" stroke-width="1.5"/>
<g id="Vector">
<path d="M10.59 13.7408C9.96125 14.162 8.31261 15.0221 9.31674 16.0983C9.80725 16.624 10.3536 17 11.0404 17H14.9596C15.6464 17 16.1928 16.624 16.6833 16.0983C17.6874 15.0221 16.0388 14.162 15.41 13.7408C13.9355 12.7531 12.0645 12.7531 10.59 13.7408Z" stroke="#7D91A6" stroke-width="1.5"/>
<path d="M15 9C15 10.1046 14.1046 11 13 11C11.8954 11 11 10.1046 11 9C11 7.89543 11.8954 7 13 7C14.1046 7 15 7.89543 15 9Z" stroke="#7D91A6" stroke-width="1.5"/>
</g>
<path id="Vector_2" d="M5 6L2.5 6M5 12L2.5 12M5 18H2.5" stroke="#7D91A6" stroke-width="1.5" stroke-linecap="round" stroke-linejoin="round"/>
</g>
</g>
</g>
</svg>
