<svg width="20" height="20" viewBox="0 0 20 20" fill="none" xmlns="http://www.w3.org/2000/svg">
<g id="contact-02">
<g id="contact-02_2">
<g id="elements">
<path id="Rectangle 17837" d="M3.33398 8.33341C3.33398 5.19072 3.33398 3.61937 4.3103 2.64306C5.28661 1.66675 6.85795 1.66675 10.0007 1.66675H11.2507C14.3933 1.66675 15.9647 1.66675 16.941 2.64306C17.9173 3.61937 17.9173 5.19072 17.9173 8.33342V11.6667C17.9173 14.8094 17.9173 16.3808 16.941 17.3571C15.9647 18.3334 14.3933 18.3334 11.2507 18.3334H10.0007C6.85795 18.3334 5.28661 18.3334 4.3103 17.3571C3.33398 16.3808 3.33398 14.8094 3.33398 11.6667V8.33341Z" stroke="#7D91A6" stroke-width="1.5"/>
<path id="Vector" d="M8.16661 9.97838C7.8111 9.35849 7.63944 8.8523 7.53594 8.3392C7.38286 7.58034 7.73318 6.83905 8.31352 6.36605C8.55879 6.16614 8.83996 6.23444 8.985 6.49465L9.31244 7.08209C9.57198 7.54771 9.70175 7.78052 9.67601 8.02735C9.65027 8.27417 9.47526 8.4752 9.12524 8.87725L8.16661 9.97838ZM8.16661 9.97838C8.88619 11.2331 10.0154 12.363 11.2716 13.0834M11.2716 13.0834C11.8915 13.4389 12.3977 13.6106 12.9108 13.7141C13.6697 13.8671 14.4109 13.5168 14.8839 12.9365C15.0839 12.6912 15.0156 12.41 14.7554 12.265L14.1679 11.9376C13.7023 11.678 13.4695 11.5482 13.2227 11.574C12.9758 11.5997 12.7748 11.7747 12.3727 12.1248L11.2716 13.0834Z" stroke="#7D91A6" stroke-width="1.5" stroke-linejoin="round"/>
<path id="Vector_2" d="M4.16732 5L2.08398 5M4.16732 10L2.08398 10M4.16732 15H2.08398" stroke="#7D91A6" stroke-width="1.5" stroke-linecap="round" stroke-linejoin="round"/>
</g>
</g>
</g>
</svg>
