<svg width="20" height="20" viewBox="0 0 20 20" fill="none" xmlns="http://www.w3.org/2000/svg">
<g id="coupon-01">
<g id="coupon-01_2">
<path id="elements" d="M9.06081 17.927L7.36889 16.9228C6.93948 16.6679 6.72478 16.5404 6.48649 16.5331C6.22899 16.5251 6.01048 16.6474 5.54648 16.9228C5.0268 17.2312 3.99346 18.0809 3.32504 17.6757C2.91602 17.4278 2.91602 16.7979 2.91602 15.5382V6.66675C2.91602 4.30973 2.91602 3.13121 3.64825 2.39898C4.38048 1.66675 5.55899 1.66675 7.91602 1.66675H12.0827C14.4397 1.66675 15.6182 1.66675 16.3505 2.39898C17.0827 3.13121 17.0827 4.30973 17.0827 6.66675V15.5382C17.0827 16.7979 17.0827 17.4278 16.6737 17.6757C16.0052 18.0809 14.9719 17.2312 14.4522 16.9228C14.0228 16.6679 13.8081 16.5404 13.5698 16.5331C13.3123 16.5251 13.0938 16.6474 12.6298 16.9228L10.9379 17.927C10.4815 18.1979 10.2533 18.3334 9.99935 18.3334C9.74542 18.3334 9.51719 18.1979 9.06081 17.927Z" stroke="#7D91A6" stroke-width="1.5" stroke-linecap="round" stroke-linejoin="round"/>
<g id="elements_2">
<path id="Vector 3082" d="M12.5 6.66675L7.5 11.6667" stroke="#7D91A6" stroke-width="1.5" stroke-linecap="round" stroke-linejoin="round"/>
<path id="Vector" d="M12.5 11.6667H12.4925M7.50747 6.66675H7.5" stroke="#7D91A6" stroke-width="2" stroke-linecap="round" stroke-linejoin="round"/>
</g>
</g>
</g>
</svg>
