<svg width="20" height="20" viewBox="0 0 20 20" fill="none" xmlns="http://www.w3.org/2000/svg">
<g id="filter-horizontal">
<g id="filter-horizontal_2">
<g id="elements">
<path id="Vector 753" d="M2.5 5.8335H5" stroke="#1A2229" stroke-width="1.5" stroke-linecap="round" stroke-linejoin="round"/>
<path id="Vector 754" d="M2.5 14.1667H7.5" stroke="#1A2229" stroke-width="1.5" stroke-linecap="round" stroke-linejoin="round"/>
<path id="Vector 757" d="M15 14.1667L17.5 14.1667" stroke="#1A2229" stroke-width="1.5" stroke-linecap="round" stroke-linejoin="round"/>
<path id="Vector 758" d="M12.5 5.8335L17.5 5.8335" stroke="#1A2229" stroke-width="1.5" stroke-linecap="round" stroke-linejoin="round"/>
<path id="Rectangle 2129" d="M5 5.8335C5 5.05693 5 4.66864 5.12687 4.36236C5.29602 3.95398 5.62048 3.62952 6.02886 3.46036C6.33515 3.3335 6.72343 3.3335 7.5 3.3335C8.27657 3.3335 8.66485 3.3335 8.97114 3.46036C9.37952 3.62952 9.70398 3.95398 9.87313 4.36236C10 4.66864 10 5.05693 10 5.8335C10 6.61007 10 6.99835 9.87313 7.30464C9.70398 7.71302 9.37952 8.03747 8.97114 8.20663C8.66485 8.3335 8.27657 8.3335 7.5 8.3335C6.72343 8.3335 6.33515 8.3335 6.02886 8.20663C5.62048 8.03747 5.29602 7.71302 5.12687 7.30464C5 6.99835 5 6.61007 5 5.8335Z" stroke="#1A2229" stroke-width="1.5"/>
<path id="Rectangle 2130" d="M10 14.1667C10 13.3902 10 13.0019 10.1269 12.6956C10.296 12.2872 10.6205 11.9628 11.0289 11.7936C11.3351 11.6667 11.7234 11.6667 12.5 11.6667C13.2766 11.6667 13.6649 11.6667 13.9711 11.7936C14.3795 11.9628 14.704 12.2872 14.8731 12.6956C15 13.0019 15 13.3902 15 14.1667C15 14.9433 15 15.3316 14.8731 15.6379C14.704 16.0463 14.3795 16.3707 13.9711 16.5399C13.6649 16.6667 13.2766 16.6667 12.5 16.6667C11.7234 16.6667 11.3351 16.6667 11.0289 16.5399C10.6205 16.3707 10.296 16.0463 10.1269 15.6379C10 15.3316 10 14.9433 10 14.1667Z" stroke="#1A2229" stroke-width="1.5"/>
</g>
</g>
</g>
</svg>
