<svg width="20" height="20" viewBox="0 0 20 20" fill="none" xmlns="http://www.w3.org/2000/svg">
<g id="flag-02">
<g id="flag-02_2">
<g id="elements">
<path id="Vector" d="M3.33398 5.83325L3.33398 17.4999" stroke="#7D91A6" stroke-width="1.5" stroke-linecap="round" stroke-linejoin="round"/>
<path id="Vector_2" d="M9.79863 3.25721C7.04428 1.85414 4.8767 2.6762 3.79587 3.516C3.60105 3.66737 3.50364 3.74306 3.41881 3.91639C3.33398 4.08973 3.33398 4.25115 3.33398 4.574V12.2766C4.14207 11.3619 6.56631 9.944 9.79863 11.5905C12.6873 13.062 15.1457 12.452 16.3087 11.8163C16.4701 11.7281 16.5508 11.684 16.609 11.5857C16.6673 11.4874 16.6673 11.3807 16.6673 11.1674V4.89491C16.6673 4.20448 16.6673 3.85927 16.5029 3.73421C16.3384 3.60915 15.9537 3.71584 15.1842 3.9292C13.8673 4.29433 11.9526 4.35443 9.79863 3.25721Z" stroke="#7D91A6" stroke-width="1.5" stroke-linecap="round" stroke-linejoin="round"/>
</g>
</g>
</g>
</svg>
