<svg width="20" height="20" viewBox="0 0 20 20" fill="none" xmlns="http://www.w3.org/2000/svg">
<g id="setting-01">
<g id="setting-01_2">
<g id="elements">
<path id="Vector" d="M17.7652 5.95108L17.3539 5.23725C17.0428 4.69739 16.8873 4.42746 16.6226 4.31982C16.358 4.21218 16.0587 4.29712 15.4601 4.46699L14.4432 4.7534C14.061 4.84153 13.6601 4.79154 13.3111 4.61225L13.0304 4.45027C12.7311 4.25861 12.501 3.97603 12.3736 3.64387L12.0953 2.81272C11.9123 2.2627 11.8208 1.98769 11.603 1.83039C11.3852 1.6731 11.0959 1.6731 10.5172 1.6731H9.58826C9.00963 1.6731 8.72032 1.6731 8.5025 1.83039C8.28469 1.98769 8.1932 2.2627 8.01022 2.81272L7.73193 3.64387C7.60452 3.97603 7.37436 4.25861 7.07512 4.45027L6.79439 4.61225C6.44543 4.79154 6.04448 4.84153 5.6623 4.7534L4.64544 4.46699C4.04683 4.29712 3.74752 4.21218 3.48288 4.31982C3.21823 4.42746 3.06269 4.69739 2.75161 5.23725L2.34029 5.95108C2.0487 6.45712 1.9029 6.71014 1.9312 6.97949C1.9595 7.24884 2.15468 7.4659 2.54503 7.90002L3.40424 8.86061C3.61423 9.12646 3.76332 9.58976 3.76332 10.0063C3.76332 10.4231 3.61428 10.8863 3.40426 11.1522L2.54504 12.1128C2.15468 12.5469 1.9595 12.7639 1.9312 13.0333C1.9029 13.3026 2.0487 13.5557 2.34029 14.0617L2.7516 14.7755C3.06267 15.3154 3.21823 15.5853 3.48288 15.693C3.74753 15.8006 4.04684 15.7157 4.64546 15.5458L5.66227 15.2594C6.04451 15.1712 6.44554 15.2212 6.79454 15.4006L7.07523 15.5626C7.37441 15.7542 7.60452 16.0368 7.7319 16.3689L8.01022 17.2001C8.1932 17.7502 8.28469 18.0252 8.5025 18.1825C8.72032 18.3398 9.00963 18.3398 9.58826 18.3398H10.5172C11.0959 18.3398 11.3852 18.3398 11.603 18.1825C11.8208 18.0252 11.9123 17.7502 12.0953 17.2001L12.3736 16.3689C12.501 16.0368 12.7311 15.7542 13.0303 15.5626L13.311 15.4006C13.66 15.2212 14.061 15.1712 14.4432 15.2594L15.4601 15.5458C16.0587 15.7157 16.358 15.8006 16.6226 15.693C16.8873 15.5853 17.0428 15.3154 17.3539 14.7755L17.3539 14.7755L17.7652 14.0617C18.0568 13.5557 18.2026 13.3026 18.1743 13.0333C18.146 12.7639 17.9508 12.5469 17.5605 12.1128L16.7013 11.1522C16.4912 10.8863 16.3422 10.4231 16.3422 10.0063C16.3422 9.58976 16.4913 9.12646 16.7013 8.86061L17.5605 7.90002C17.9508 7.4659 18.146 7.24884 18.1743 6.97949C18.2026 6.71014 18.0568 6.45712 17.7652 5.95108Z" stroke="#7D91A6" stroke-width="1.5" stroke-linecap="round"/>
<path id="Ellipse 1200" d="M12.9329 9.99992C12.9329 11.6107 11.6271 12.9166 10.0163 12.9166C8.40545 12.9166 7.09961 11.6107 7.09961 9.99992C7.09961 8.38909 8.40545 7.08325 10.0163 7.08325C11.6271 7.08325 12.9329 8.38909 12.9329 9.99992Z" stroke="#7D91A6" stroke-width="1.5"/>
</g>
</g>
</g>
</svg>
