<svg width="0" height="0" style="position:absolute">
    <symbol viewBox="0 0 24 24" fill="none" id="icon-home" xmlns="http://www.w3.org/2000/svg">
        <path
            d="m3 12 2-2m0 0 7-7 7 7M5 10v10a1 1 0 0 0 1 1h3m10-11 2 2m-2-2v10a1 1 0 0 1-1 1h-3m-6 0a1 1 0 0 0 1-1v-4a1 1 0 0 1 1-1h2a1 1 0 0 1 1 1v4a1 1 0 0 0 1 1m-6 0h6"
            stroke="currentColor" stroke-width="2" stroke-linecap="round" stroke-linejoin="round" />
    </symbol>
    <symbol viewBox="0 0 24 24" fill="none" id="icon-plus" xmlns="http://www.w3.org/2000/svg">
        <path d="M12 5v14m-7-7h14" stroke="currentColor" stroke-width="2" stroke-linecap="round"
            stroke-linejoin="round" />
    </symbol>
    <symbol viewBox="0 0 24 24" fill="none" id="icon-search" xmlns="http://www.w3.org/2000/svg">
        <path d="m21 21-6-6m2-5a7 7 0 1 1-14 0 7 7 0 0 1 14 0z" stroke="currentColor"
            stroke-width="2" stroke-linecap="round" stroke-linejoin="round" />
    </symbol>
    <symbol viewBox="0 0 24 24" fill="none" id="icon-settings" xmlns="http://www.w3.org/2000/svg">
        <path
            d="M10.325 4.317c.426-1.756 2.924-1.756 3.35 0a1.724 1.724 0 0 0 2.573 1.066c1.543-.94 3.31.826 2.37 2.37a1.724 1.724 0 0 0 1.065 2.572c1.756.426 1.756 2.924 0 3.35a1.724 1.724 0 0 0-1.066 2.573c.94 1.543-.826 3.31-2.37 2.37a1.724 1.724 0 0 0-2.572 1.065c-.426 1.756-2.924 1.756-3.35 0a1.724 1.724 0 0 0-2.573-1.066c-1.543.94-3.31-.826-2.37-2.37a1.724 1.724 0 0 0-1.065-2.572c-1.756-.426-1.756-2.924 0-3.35a1.724 1.724 0 0 0 1.066-2.573c-.94-1.543.826-3.31 2.37-2.37.996.608 2.296.07 2.572-1.065z"
            stroke="currentColor" stroke-width="2" stroke-linecap="round" stroke-linejoin="round" />
        <path d="M15 12a3 3 0 1 1-6 0 3 3 0 0 1 6 0z" stroke="currentColor" stroke-width="2"
            stroke-linecap="round" stroke-linejoin="round" />
    </symbol>
</svg>