<svg width="20" height="20" viewBox="0 0 20 20" fill="none" xmlns="http://www.w3.org/2000/svg">
<g id="user-star-01">
<g id="user-star-01_2">
<g id="elements">
<path id="Vector" d="M10.416 18.3334H5.49174C4.20392 18.3334 3.17961 17.7068 2.2599 16.8306C0.377153 15.0368 3.46835 13.6034 4.64733 12.9014C6.52185 11.7852 8.7381 11.4259 10.8327 11.8233" stroke="#7D91A6" stroke-width="1.5" stroke-linecap="round" stroke-linejoin="round"/>
<path id="Ellipse 1382" d="M12.916 5.41675C12.916 7.48782 11.2371 9.16675 9.16602 9.16675C7.09495 9.16675 5.41602 7.48782 5.41602 5.41675C5.41602 3.34568 7.09495 1.66675 9.16602 1.66675C11.2371 1.66675 12.916 3.34568 12.916 5.41675Z" stroke="#7D91A6" stroke-width="1.5"/>
<path id="Vector_2" d="M15.5752 12.1481L16.1618 13.331C16.2418 13.4957 16.4551 13.6536 16.6351 13.6839L17.6983 13.862C18.3783 13.9763 18.5382 14.4736 18.0483 14.9642L17.2217 15.7977C17.0817 15.9388 17.0051 16.211 17.0484 16.4059L17.285 17.4376C17.4717 18.2542 17.0417 18.5701 16.3251 18.1433L15.3286 17.5485C15.1486 17.4409 14.852 17.4409 14.6687 17.5485L13.6721 18.1433C12.9589 18.5701 12.5256 18.2508 12.7122 17.4376L12.9489 16.4059C12.9922 16.211 12.9155 15.9388 12.7755 15.7977L11.949 14.9642C11.4623 14.4736 11.619 13.9763 12.2989 13.862L13.3621 13.6839C13.5388 13.6536 13.7521 13.4957 13.8321 13.331L14.4187 12.1481C14.7387 11.5063 15.2586 11.5063 15.5752 12.1481Z" stroke="#7D91A6" stroke-width="1.5" stroke-linecap="round" stroke-linejoin="round"/>
</g>
</g>
</g>
</svg>
