<svg width="20" height="20" viewBox="0 0 20 20" fill="none" xmlns="http://www.w3.org/2000/svg">
    <path
        d="M10 12.5C11.38 12.5 12.5 11.38 12.5 10C12.5 8.62 11.38 7.5 10 7.5C8.62 7.5 7.5 8.62 7.5 10C7.5 11.38 8.62 12.5 10 12.5Z"
        stroke="currentColor" stroke-width="1.5" />
    <path
        d="M16.17 10C16.17 9.5 16.12 9.01 16.03 8.53L17.78 7.22C17.95 7.09 18.01 6.86 17.91 6.67L16.24 3.83C16.14 3.64 15.91 3.57 15.72 3.64L13.67 4.39C13.26 4.09 12.81 3.84 12.33 3.64L12.03 1.47C12 1.26 11.82 1.1 11.6 1.1H8.26C8.04 1.1 7.86 1.26 7.83 1.47L7.53 3.64C7.05 3.84 6.6 4.09 6.19 4.39L4.14 3.64C3.95 3.57 3.72 3.64 3.62 3.83L1.95 6.67C1.85 6.86 1.91 7.09 2.08 7.22L3.83 8.53C3.74 9.01 3.69 9.5 3.69 10C3.69 10.5 3.74 10.99 3.83 11.47L2.08 12.78C1.91 12.91 1.85 13.14 1.95 13.33L3.62 16.17C3.72 16.36 3.95 16.43 4.14 16.36L6.19 15.61C6.6 15.91 7.05 16.16 7.53 16.36L7.83 18.53C7.86 18.74 8.04 18.9 8.26 18.9H11.6C11.82 18.9 12 18.74 12.03 18.53L12.33 16.36C12.81 16.16 13.26 15.91 13.67 15.61L15.72 16.36C15.91 16.43 16.14 16.36 16.24 16.17L17.91 13.33C18.01 13.14 17.95 12.91 17.78 12.78L16.03 11.47C16.12 10.99 16.17 10.5 16.17 10Z"
        stroke="currentColor" stroke-width="1.5" />
</svg> 